<svg xmlns="http://www.w3.org/2000/svg" width="16" height="16" fill="none"><g clip-path="url(#a)"><rect width="16" height="16" fill="#393E41" rx="2"/><path fill="#fff" stroke="#212529" stroke-linejoin="round" stroke-width=".264" d="M12.68 7.54a2.13 2.13 0 0 0-3.01 0l-4.553 4.553-.012.012-.012.012-4.552 4.552a2.13 2.13 0 1 0 3.012 3.012l4.552-4.553.01-.01.002-.002.011-.01 4.553-4.553a2.13 2.13 0 0 0 0-3.012Z"/><path fill="url(#b)" d="M8.778 9.502a1.373 1.373 0 1 1 1.942 1.942l-2.572 2.572-.531-3.353 1.16-1.161Z"/><path fill="url(#c)" d="m7.386 10.894-.843.843.53 3.353.5-.5a2.02 2.02 0 0 0 .017-.016l.327-.327-.531-3.353Z"/><path fill="url(#d)" d="m5.648 12.632.664-.664.53 3.353-.854.855-.53-3.353.174-.175.008-.008a3.03 3.03 0 0 1 .008-.008Z"/><path fill="url(#e)" d="m5.226 13.053-2.724 2.725a1.373 1.373 0 1 0 1.942 1.942l1.313-1.313-.53-3.354Z"/><path fill="url(#f)" d="M9.46 4.32a2.13 2.13 0 0 0-3.013 0L1.895 8.871l-.012.011-.011.012-4.553 4.553a2.13 2.13 0 1 0 3.012 3.011l4.552-4.552.011-.011.002-.002.01-.01L9.46 7.33a2.13 2.13 0 0 0 0-3.012Z"/><path fill="#fff" d="M9.46 4.32a2.13 2.13 0 0 0-3.013 0L1.895 8.871l-.012.011-.011.012-4.553 4.553a2.13 2.13 0 1 0 3.012 3.011l4.552-4.552.011-.011.002-.002.01-.01L9.46 7.33a2.13 2.13 0 0 0 0-3.012Z"/><path stroke="#212529" stroke-linejoin="round" stroke-width=".264" d="M9.46 4.32a2.13 2.13 0 0 0-3.013 0L1.895 8.871l-.012.011-.011.012-4.553 4.553a2.13 2.13 0 1 0 3.012 3.011l4.552-4.552.011-.011.002-.002.01-.01L9.46 7.33a2.13 2.13 0 0 0 0-3.012Z"/><path fill="url(#g)" d="M7.498 6.28a1.373 1.373 0 0 0-1.942 0l-3.13 3.13a1.515 1.515 0 0 0-.008.008l-.008.008-3.13 3.13a1.373 1.373 0 0 0 1.942 1.942l3.13-3.13a3.03 3.03 0 0 0 .016-.016l3.13-3.13a1.373 1.373 0 0 0 0-1.942Z"/></g><defs><linearGradient id="b" x1="10.72" x2="2.502" y1="9.502" y2="17.72" gradientUnits="userSpaceOnUse"><stop stop-color="#45D8FD"/><stop offset="1" stop-color="#364676"/></linearGradient><linearGradient id="c" x1="10.72" x2="2.502" y1="9.502" y2="17.72" gradientUnits="userSpaceOnUse"><stop stop-color="#45D8FD"/><stop offset="1" stop-color="#364676"/></linearGradient><linearGradient id="d" x1="10.72" x2="2.502" y1="9.502" y2="17.72" gradientUnits="userSpaceOnUse"><stop stop-color="#45D8FD"/><stop offset="1" stop-color="#364676"/></linearGradient><linearGradient id="e" x1="10.72" x2="2.502" y1="9.502" y2="17.72" gradientUnits="userSpaceOnUse"><stop stop-color="#45D8FD"/><stop offset="1" stop-color="#364676"/></linearGradient><linearGradient id="f" x1="8.817" x2="2.542" y1="4.961" y2="11.237" gradientUnits="userSpaceOnUse"><stop stop-color="#1763E6"/><stop offset=".5" stop-color="#00BFAF"/><stop offset="1" stop-color="#CF9"/></linearGradient><linearGradient id="g" x1="7.121" x2="-.282" y1="6.657" y2="14.06" gradientUnits="userSpaceOnUse"><stop stop-color="#8A5EF8"/><stop offset=".323" stop-color="#1763E6"/><stop offset=".661" stop-color="#00BFAF"/><stop offset="1" stop-color="#CF9"/></linearGradient><clipPath id="a"><path fill="#fff" d="M0 0h16v16H0z"/></clipPath></defs></svg>