<svg xmlns="http://www.w3.org/2000/svg" width="1024" height="1024" fill="none"><g clip-path="url(#a)"><path fill="#393E41" d="M0 0h1024v1024H0z"/><path fill="#fff" stroke="#212529" stroke-linejoin="round" stroke-width="16" d="M801.454 529.064c-50.377-50.377-132.055-50.377-182.433 0L343.249 804.836c-.236.236-.471.473-.705.711-.237.233-.473.468-.709.703L66.064 1082.02c-50.378 50.38-50.378 132.06 0 182.44 50.377 50.37 132.055 50.37 182.433 0l275.772-275.776c.235-.236.47-.472.703-.709.238-.234.475-.469.711-.705l275.771-275.772c50.378-50.378 50.378-132.056 0-182.434Z"/><path fill="url(#b)" d="M565.016 647.858c32.487-32.486 85.158-32.486 117.645 0 32.487 32.487 32.487 85.158 0 117.645L526.854 921.31l-32.171-203.119 70.333-70.333Z"/><path fill="url(#c)" d="m480.698 732.176-51.069 51.069L461.8 986.364l30.296-30.296c.162-.162.323-.324.484-.488.163-.16.326-.322.488-.484l19.801-19.801-32.171-203.119Z"/><path fill="url(#d)" d="m375.423 837.451 40.222-40.221 32.17 203.12-51.776 51.77-32.171-203.114 10.583-10.582c.162-.163.325-.324.488-.485.16-.163.322-.326.484-.488Z"/><path fill="url(#e)" d="M349.884 862.991 184.858 1028.02c-32.487 32.48-32.487 85.15 0 117.64 32.486 32.49 85.158 32.49 117.645 0l79.552-79.55-32.171-203.119Z"/><path fill="url(#f)" d="M606.293 333.903c-50.377-50.378-132.056-50.378-182.433 0L148.088 609.674l-.705.711c-.237.233-.473.468-.709.704L-129.098 886.86c-50.377 50.378-50.377 132.06 0 182.43 50.378 50.38 132.056 50.38 182.434 0l275.772-275.768c.235-.235.47-.472.703-.709.238-.234.475-.469.711-.705l275.771-275.772c50.378-50.377 50.378-132.056 0-182.433Z"/><path fill="#fff" d="M606.293 333.903c-50.377-50.378-132.056-50.378-182.433 0L148.088 609.674l-.705.711c-.237.233-.473.468-.709.704L-129.098 886.86c-50.377 50.378-50.377 132.06 0 182.43 50.378 50.38 132.056 50.38 182.434 0l275.772-275.768c.235-.235.47-.472.703-.709.238-.234.475-.469.711-.705l275.771-275.772c50.378-50.377 50.378-132.056 0-182.433Z"/><path stroke="#212529" stroke-linejoin="round" stroke-width="16" d="M606.293 333.903c-50.377-50.378-132.056-50.378-182.433 0L148.088 609.674l-.705.711c-.237.233-.473.468-.709.704L-129.098 886.86c-50.377 50.378-50.377 132.06 0 182.43 50.378 50.38 132.056 50.38 182.434 0l275.772-275.768c.235-.235.47-.472.703-.709.238-.234.475-.469.711-.705l275.771-275.772c50.378-50.377 50.378-132.056 0-182.433Z"/><path fill="url(#g)" d="M487.5 452.697c-32.487-32.487-85.158-32.487-117.645 0L180.262 642.29a74.13 74.13 0 0 0-.484.488l-.488.484-189.593 189.593c-32.487 32.487-32.487 85.159 0 117.645 32.486 32.487 85.158 32.487 117.645 0l189.593-189.593.484-.488.488-.484L487.5 570.342c32.487-32.487 32.487-85.158 0-117.645Z"/></g><defs><linearGradient id="b" x1="682.661" x2="184.858" y1="647.858" y2="1145.66" gradientUnits="userSpaceOnUse"><stop stop-color="#45D8FD"/><stop offset="1" stop-color="#364676"/></linearGradient><linearGradient id="c" x1="682.661" x2="184.858" y1="647.858" y2="1145.66" gradientUnits="userSpaceOnUse"><stop stop-color="#45D8FD"/><stop offset="1" stop-color="#364676"/></linearGradient><linearGradient id="d" x1="682.661" x2="184.858" y1="647.858" y2="1145.66" gradientUnits="userSpaceOnUse"><stop stop-color="#45D8FD"/><stop offset="1" stop-color="#364676"/></linearGradient><linearGradient id="e" x1="682.661" x2="184.858" y1="647.858" y2="1145.66" gradientUnits="userSpaceOnUse"><stop stop-color="#45D8FD"/><stop offset="1" stop-color="#364676"/></linearGradient><linearGradient id="f" x1="567.403" x2="187.262" y1="372.794" y2="752.934" gradientUnits="userSpaceOnUse"><stop stop-color="#1763E6"/><stop offset=".5" stop-color="#00BFAF"/><stop offset="1" stop-color="#CF9"/></linearGradient><linearGradient id="g" x1="464.652" x2="16.213" y1="475.545" y2="923.983" gradientUnits="userSpaceOnUse"><stop stop-color="#8A5EF8"/><stop offset=".323" stop-color="#1763E6"/><stop offset=".661" stop-color="#00BFAF"/><stop offset="1" stop-color="#CF9"/></linearGradient><clipPath id="a"><path fill="#fff" d="M0 0h1024v1024H0z"/></clipPath></defs></svg>
